<?xml version="1.0" standalone="no"?>
<!DOCTYPE svg PUBLIC "-//W3C//DTD SVG 20010904//EN"
 "http://www.w3.org/TR/2001/REC-SVG-20010904/DTD/svg10.dtd">
<svg version="1.0" xmlns="http://www.w3.org/2000/svg"
 width="500.000000pt" height="500.000000pt" viewBox="0 0 500.000000 500.000000"
 preserveAspectRatio="xMidYMid meet">
<metadata>
Created by potrace 1.14, written by Peter Selinger 2001-2017
</metadata>
<g transform="translate(0.000000,500.000000) scale(0.100000,-0.100000)"
fill="#000000" stroke="none">
<path d="M1300 4505 c-223 -40 -390 -121 -545 -267 -151 -141 -247 -312 -290
-520 -22 -102 -22 -2352 -1 -2473 34 -191 127 -372 262 -509 142 -144 325
-238 538 -275 40 -7 453 -11 1235 -11 1283 1 1246 -1 1416 59 287 102 487 310
591 613 l39 113 3 1200 c3 1329 6 1259 -63 1451 -92 258 -327 481 -605 574
-179 60 -168 60 -1390 59 -878 -1 -1131 -4 -1190 -14z m2447 -167 c264 -82
448 -228 552 -440 98 -198 92 -95 89 -1449 l-3 -1184 -28 -78 c-56 -159 -102
-233 -207 -339 -90 -90 -108 -103 -212 -153 -206 -98 -78 -90 -1438 -90 -1360
0 -1233 -8 -1438 91 -103 50 -122 64 -213 153 -89 89 -104 109 -149 202 -97
203 -91 109 -88 1456 l3 1178 24 70 c12 39 44 111 69 160 37 74 62 107 142
186 108 107 179 154 298 198 169 62 106 60 1382 57 1042 -1 1171 -3 1217 -18z"/>
<path d="M2249 3940 c-122 -22 -323 -87 -419 -135 -309 -156 -583 -445 -711
-750 -89 -215 -122 -372 -122 -595 0 -212 35 -379 122 -585 81 -189 231 -402
367 -521 38 -32 76 -67 87 -77 36 -36 194 -131 292 -178 113 -53 250 -99 375
-126 119 -25 401 -25 520 0 125 27 304 89 411 142 333 167 586 441 723 783
159 396 154 767 -18 1165 -112 261 -304 486 -553 650 -163 107 -300 165 -503
214 -148 35 -416 41 -571 13z m178 -706 c-10 -10 -442 37 -454 49 -4 5 89 140
146 211 31 39 63 81 72 94 10 13 66 69 125 123 l109 98 3 -286 c1 -157 1 -287
-1 -289z m278 456 c62 -58 205 -224 263 -306 17 -26 31 -33 71 -38 28 -4 68
-13 91 -21 22 -8 40 -11 40 -7 0 8 -60 100 -134 207 -27 39 -85 109 -129 158
-43 48 -75 87 -71 87 5 0 38 -9 73 -20 58 -18 73 -29 153 -113 83 -85 151
-165 222 -259 l27 -37 -61 -17 -61 -17 52 -28 c28 -16 57 -34 65 -39 7 -6 24
-14 37 -18 34 -9 181 -182 219 -257 64 -124 79 -187 85 -353 4 -91 2 -157 -3
-160 -5 -4 -18 -32 -27 -62 -10 -30 -21 -61 -24 -67 -3 -9 5 -13 26 -13 l31 0
-6 -57 c-9 -79 -58 -242 -94 -314 -35 -68 -36 -76 -13 -101 20 -23 55 -23 75
0 39 43 118 283 143 435 6 36 7 37 51 37 l46 0 -7 -52 c-19 -137 -89 -328
-177 -478 -56 -96 -154 -230 -167 -230 -5 0 -60 16 -121 35 -61 19 -117 35
-123 35 -7 0 -18 4 -26 9 -12 8 -10 17 11 58 22 41 88 214 88 230 0 2 -25 -18
-56 -45 -31 -28 -75 -60 -98 -73 -31 -16 -50 -36 -70 -76 -22 -41 -34 -53 -52
-53 -13 0 -24 3 -24 8 0 4 32 48 71 97 40 50 88 115 107 145 49 76 165 232
186 249 23 19 102 167 126 236 30 86 42 209 30 296 -7 57 -22 99 -66 186 -47
95 -66 122 -129 181 -99 95 -180 139 -302 164 -221 45 -431 -27 -582 -199 -49
-55 -105 -167 -128 -256 -21 -81 -21 -235 0 -307 35 -124 75 -200 163 -311 38
-48 109 -142 157 -210 48 -68 109 -153 134 -188 43 -59 45 -64 23 -58 -14 3
-76 9 -137 13 l-113 7 0 105 0 106 -43 41 c-24 22 -55 56 -70 75 l-27 35 0
-181 0 -181 -107 -7 c-60 -4 -153 -14 -208 -22 -55 -8 -120 -17 -145 -20 l-45
-5 -38 81 c-60 126 -104 268 -126 408 -12 71 -21 134 -21 140 0 9 68 12 271
12 253 0 270 1 265 18 -3 9 -14 40 -25 67 l-19 50 -244 0 -243 0 -3 55 c-5 79
26 289 58 400 15 52 44 133 65 178 38 83 39 84 69 77 80 -17 208 -35 320 -45
l124 -11 49 49 c27 27 70 61 96 76 l47 28 0 281 0 281 32 -30 c18 -16 64 -58
103 -94z m-606 0 c-80 -87 -166 -202 -228 -305 -17 -27 -35 -56 -39 -63 -8
-11 -20 -11 -71 3 -33 10 -61 21 -61 25 0 18 138 186 229 278 105 106 108 108
249 151 2 1 -34 -39 -79 -89z m-372 -140 c-30 -32 -75 -84 -98 -115 -46 -58
-55 -63 -83 -42 -16 12 -11 18 51 73 64 57 174 144 182 144 2 0 -22 -27 -52
-60z m1606 -24 c94 -75 144 -123 136 -130 -2 -2 -15 -7 -29 -10 -22 -6 -35 6
-117 104 -51 60 -90 110 -87 110 3 0 46 -33 97 -74z m-1689 -306 c59 -16 110
-31 112 -33 2 -2 -9 -33 -25 -68 -75 -165 -118 -354 -135 -593 -3 -37 -6 -70
-8 -71 -2 -2 -55 -4 -118 -6 l-115 -4 -3 50 c-6 85 16 229 49 322 52 145 49
183 -12 183 -35 0 -45 -17 -87 -150 -30 -93 -44 -177 -58 -333 l-6 -77 -42 3
-41 4 1 124 c1 109 5 139 34 244 38 134 140 351 203 427 l38 46 52 -20 c29
-11 101 -33 161 -48z m1964 21 c50 -63 139 -240 177 -352 48 -142 65 -232 65
-344 l0 -95 -45 0 -45 0 0 41 c0 142 -95 509 -131 509 -5 0 -23 28 -40 63 -18
34 -50 88 -71 120 -22 32 -38 60 -36 62 6 6 73 33 84 34 6 1 25 -17 42 -38z
m-570 -151 c164 -38 304 -176 356 -349 31 -104 16 -253 -35 -354 -12 -23 -65
-100 -118 -172 -138 -185 -193 -261 -243 -334 -23 -36 -47 -66 -53 -68 -5 -1
-41 43 -80 99 -38 55 -112 158 -164 227 -180 241 -216 311 -228 446 -7 87 10
170 49 250 34 67 85 137 120 164 32 25 124 72 173 87 48 15 164 17 223 4z
m-1786 -833 c8 -59 22 -77 58 -77 39 0 52 21 48 77 l-3 48 120 0 120 0 7 -65
c18 -161 71 -351 140 -503 22 -48 38 -92 36 -98 -2 -7 -66 -30 -143 -52 l-139
-40 -29 34 c-54 64 -148 214 -193 308 -49 102 -108 285 -119 369 l-7 53 48 -3
49 -3 7 -48z m1178 -918 c0 -189 -3 -239 -12 -233 -38 22 -182 152 -234 211
-89 100 -174 209 -174 221 0 14 206 38 348 41 l72 1 0 -241z m365 230 c77 -5
155 -13 174 -17 l33 -7 -68 -85 c-78 -97 -308 -331 -341 -349 l-23 -12 0 241
0 240 43 0 c23 0 105 -5 182 -11z m-895 -121 c66 -94 144 -191 205 -254 58
-59 57 -59 -45 -20 -45 17 -74 40 -161 131 -122 127 -157 173 -137 180 14 5
80 23 89 24 3 1 25 -27 49 -61z m1305 46 c17 -4 33 -9 38 -11 10 -6 -52 -83
-160 -197 -74 -78 -100 -99 -144 -115 -96 -35 -97 -34 -23 45 38 42 106 124
150 184 51 70 84 107 94 105 8 -2 29 -7 45 -11z m-1504 -106 c55 -64 51 -63
-34 6 -36 29 -45 41 -35 47 7 5 14 9 15 9 0 0 25 -28 54 -62z m1636 8 c-93
-83 -113 -92 -47 -20 40 44 70 69 79 66 10 -4 0 -18 -32 -46z"/>
<path d="M2840 2926 c-42 -14 -115 -64 -147 -98 -46 -49 -68 -117 -68 -208 0
-73 4 -92 27 -136 34 -65 89 -118 158 -152 78 -38 191 -39 270 -1 83 39 132
92 158 172 29 90 28 161 -3 240 -50 122 -161 197 -290 197 -38 -1 -86 -7 -105
-14z m201 -160 c41 -27 79 -96 79 -142 -1 -73 -75 -165 -144 -178 -139 -26
-252 126 -187 252 51 100 159 129 252 68z"/>
<path d="M1360 1944 c-9 -22 -6 -36 17 -81 37 -72 83 -84 117 -30 9 13 4 30
-19 75 -28 52 -33 57 -68 60 -32 3 -38 0 -47 -24z"/>
</g>
</svg>
